<?xml version="1.0" encoding="UTF-8" standalone="no"?>
<svg width="250px" height="21px" viewBox="0 0 250 21" version="1.1" xmlns="http://www.w3.org/2000/svg" xmlns:xlink="http://www.w3.org/1999/xlink">
    <!-- Generator: Sketch 3.8.2 (29753) - http://www.bohemiancoding.com/sketch -->
    <title>Page 1</title>
    <desc>Created with Sketch.</desc>
    <defs>
        <polygon id="path-1" points="2.68048401e-20 0.240922481 2.68048401e-20 13.8886212 13.3364343 13.8886212 13.3364343 0.240922481 0 0.240922481"></polygon>
        <polygon id="path-3" points="0.550079114 18.5769231 12.4772943 18.5769231 12.4772943 0.367823077 0.550079114 0.367823077 0.550079114 18.5769231"></polygon>
        <polygon id="path-5" points="12.7858386 0.138923077 0.307199367 0.138923077 0.307199367 16.1833269 12.7858386 16.1833269 12.7858386 0.138923077"></polygon>
        <polygon id="path-7" points="10.7223101 12.9539308 10.7223101 0.705276923 0.434572785 0.705276923 0.434572785 12.9539308 10.7223101 12.9539308"></polygon>
    </defs>
    <g id="Welcome" stroke="none" stroke-width="1" fill="none" fill-rule="evenodd">
        <g id="Desktop-HD" transform="translate(-251.000000, -20.000000)">
            <g id="Page-1" transform="translate(251.000000, 20.000000)">
                <path d="M23.5113133,13.2970385 L23.5113133,11.8246154 C23.5263449,11.1946154 23.7961234,10.8804231 24.322231,10.8804231 C24.8483386,10.8804231 25.111788,11.2333846 25.111788,11.9393077 C25.111788,13.6120385 24.9029272,14.7783462 24.4844146,15.4374231 C23.9179589,16.3283077 22.9844146,16.7733462 21.6853639,16.7733462 C20.4915348,16.7733462 19.640269,16.3816154 19.1331487,15.5997692 C18.759731,15.0311538 18.5730222,14.0643462 18.5730222,12.6993462 L18.5730222,7.17392308 C18.5730222,6.85246154 18.4266614,6.69092308 18.134731,6.69092308 L17.3965981,6.69092308 C17.1513449,6.69092308 16.947231,6.61015385 16.7858386,6.44861538 C16.6244462,6.28788462 16.54375,6.09242308 16.54375,5.86223077 C16.54375,5.64738462 16.6228639,5.45596154 16.7803006,5.28634615 C16.9377373,5.11753846 17.1149525,5.03353846 17.3103639,5.03353846 L18.1893196,5.03353846 C18.4456487,5.03353846 18.5730222,4.88815385 18.5730222,4.59657692 L18.5730222,2.22519231 C18.5730222,1.64203846 18.8665348,1.35046154 19.4519778,1.35046154 C19.9939082,1.35046154 20.2644778,1.64203846 20.2644778,2.22519231 L20.2644778,4.68865385 C20.2644778,4.91803846 20.3989715,5.03353846 20.6695411,5.03353846 L23.1276108,5.03353846 C23.6988133,5.03353846 23.9844146,5.3025 23.9844146,5.83961538 C23.9844146,6.40742308 23.6758703,6.69092308 23.0603639,6.69092308 L20.5801424,6.69092308 C20.3689082,6.69092308 20.2644778,6.85246154 20.2644778,7.17392308 L20.2644778,12.8374615 C20.2644778,14.4488077 20.7897943,15.2540769 21.8420095,15.2540769 C22.9084652,15.2540769 23.4646361,14.6014615 23.5113133,13.2970385" id="Fill-1" fill="#FFFFFF"></path>
                <path d="M28.3138449,9.10786154 C28.3138449,9.32351538 28.479193,9.42932308 28.8098892,9.42932308 L34.1983386,9.42932308 C34.5140032,9.42932308 34.672231,9.32351538 34.672231,9.10786154 C34.672231,8.29451538 34.370807,7.58859231 33.7695411,6.99009231 C33.1690665,6.39159231 32.4625791,6.09274615 31.6508703,6.09274615 C30.808307,6.09274615 30.0424842,6.4029 29.3510285,7.02482308 C28.6595728,7.64593846 28.3138449,8.34055385 28.3138449,9.10786154 M36.4981804,9.70636154 C36.4981804,10.2895154 36.4609968,10.6465154 36.3858386,10.7765538 C36.3098892,10.9074 36.0923259,10.9728231 35.7315665,10.9728231 L28.5614715,10.9728231 C28.3660601,10.9728231 28.2378956,10.9994769 28.1785601,11.0527846 C28.1184335,11.1069 28.0883703,11.1949385 28.0883703,11.3177077 C28.0883703,12.4686692 28.4269778,13.4282077 29.1026108,14.1955154 C29.7798259,14.9628231 30.620807,15.3464769 31.6279272,15.3464769 C32.2893196,15.3464769 32.8945411,15.1615154 33.4428006,14.7932077 C33.9918513,14.4249 34.3486551,13.9572462 34.5140032,13.3894385 L34.7173259,12.7222846 C34.8225475,12.3539769 35.0701741,12.1690154 35.4609968,12.1690154 C36.0171677,12.1690154 36.2956487,12.4605923 36.2956487,13.0437462 C36.2956487,14.0412462 35.7996044,14.9280923 34.8075158,15.7026692 C33.8154272,16.4772462 32.6872627,16.8649385 31.4253956,16.8649385 C29.8462816,16.8649385 28.5915348,16.3245923 27.6595728,15.2422846 C26.7276108,14.1607846 26.2616297,12.7069385 26.2616297,10.8799385 C26.2616297,9.00851538 26.7576741,7.48843846 27.7497627,6.32293846 C28.7418513,5.15582308 30.0345728,4.57347692 31.6279272,4.57347692 C33.0409019,4.57347692 34.2054589,5.05566923 35.1223892,6.02328462 C36.0401108,6.99009231 36.4981804,8.21778462 36.4981804,9.70636154" id="Fill-3" fill="#FFFFFF"></path>
                <path d="M44.6344146,12.3078577 L44.6344146,10.6730885 C44.3045095,10.9800115 43.9571994,11.1948577 43.5901108,11.3176269 C43.2230222,11.4412038 42.5679589,11.5478192 41.6249209,11.6398962 C39.9184335,11.8095115 39.0647943,12.45405 39.0647943,13.5735115 C39.0647943,14.1566654 39.2712816,14.61705 39.6850475,14.9546654 C40.0988133,15.2922808 40.6581487,15.4610885 41.3646361,15.4610885 C42.3717563,15.4610885 43.165269,15.1816269 43.7435918,14.6210885 C44.3219146,14.0613577 44.6185918,13.2900115 44.6344146,12.3078577 M47.136788,16.8882808 C45.904193,16.8882808 45.1454905,16.3438962 44.8590981,15.2535115 C44.0924842,16.4044731 42.8899525,16.9803577 41.2522943,16.9803577 C40.034731,16.9803577 39.0608386,16.6726269 38.3321994,16.0603962 C37.602769,15.44655 37.2380538,14.6251269 37.2380538,13.5969346 C37.2380538,12.3232038 37.7720728,11.3862808 38.8393196,10.7877808 C39.2451741,10.5583962 39.5948576,10.4081654 39.8875791,10.3387038 C40.1810918,10.2708577 40.7704905,10.1820115 41.6573576,10.0745885 C42.920807,9.93647308 43.7435918,9.74505 44.1265032,9.49870385 C44.5102057,9.25397308 44.7016614,8.80085769 44.7016614,8.14097308 C44.7016614,7.51258846 44.4872627,7.01666538 44.0584652,6.65643462 C43.6304589,6.29620385 43.0339399,6.11528077 42.2665348,6.11528077 C41.5901108,6.11528077 40.9587816,6.30751154 40.3725475,6.69116538 C40.1470728,6.84381923 40.034731,7.00616538 40.034731,7.17416538 C40.034731,7.23555 40.1019778,7.31228077 40.2372627,7.40435769 C40.4477057,7.55781923 40.5529272,7.81870385 40.5529272,8.18701154 C40.5529272,8.49393462 40.44375,8.74755 40.2261867,8.94705 C40.0078323,9.14655 39.7340981,9.24589615 39.4034019,9.24589615 C39.0125791,9.24589615 38.6850475,9.10778077 38.4215981,8.83155 C38.1589399,8.55531923 38.0276108,8.21851154 38.0276108,7.81870385 C38.0276108,6.95931923 38.4453323,6.22270385 39.2784019,5.60885769 C40.1130538,4.99501154 41.1241297,4.68808846 42.3116297,4.68808846 C45.0473892,4.68808846 46.415269,6.02885769 46.415269,8.70797308 L46.415269,13.3481654 C46.415269,14.0831654 46.4303006,14.5193192 46.4611551,14.6574346 C46.5505538,15.1929346 46.8060918,15.4610885 47.2269778,15.4610885 C47.7530854,15.4610885 48.0157437,14.9732423 48.0157437,13.9983577 L48.0157437,12.8780885 C48.0157437,12.3902423 48.2451741,12.1463192 48.7048259,12.1463192 C49.1929589,12.1463192 49.4366297,12.5146269 49.4366297,13.2512423 L49.4366297,13.3667423 L49.4366297,14.6784346 C49.4065665,16.1516654 48.6391614,16.8882808 47.136788,16.8882808" id="Fill-5" fill="#FFFFFF"></path>
                <path d="M56.7193829,8.99268462 C56.7193829,8.37883846 57.0951741,8.02587692 57.8467563,7.9338 C57.7715981,7.39668462 57.5200158,6.97506923 57.0920095,6.66733846 C56.663212,6.36041538 56.1102057,6.20776154 55.4337816,6.20776154 C54.3965981,6.20776154 53.5627373,6.62937692 52.9314082,7.47341538 C52.3000791,8.31745385 51.9844146,9.43853077 51.9844146,10.8342231 C51.9844146,12.2767615 52.2810918,13.4091462 52.8752373,14.2289538 C53.4685918,15.0503769 54.2921677,15.4614923 55.3443829,15.4614923 C56.0057753,15.4614923 56.5801424,15.2692615 57.0682753,14.8856077 C57.5571994,14.5019538 57.8918513,13.9729154 58.072231,13.2968769 C58.2217563,12.7605692 58.3127373,12.4536462 58.3428006,12.3761077 C58.5081487,12.0699923 58.7486551,11.9157231 59.0643196,11.9157231 C59.3198576,11.9157231 59.5303006,12.0013385 59.6956487,12.1693385 C59.8609968,12.3389538 59.9432753,12.5529923 59.9432753,12.8138769 C59.9432753,13.1975308 59.8230222,13.6579154 59.5825158,14.1950308 C59.3420095,14.7321462 59.0564082,15.1771846 58.725712,15.5301462 C57.8388449,16.4969538 56.6893196,16.9807615 55.2763449,16.9807615 C53.7431171,16.9807615 52.5065665,16.4274923 51.566693,15.3233769 C50.6276108,14.2184538 50.1576741,12.7678385 50.1576741,10.9723385 C50.1576741,9.07022308 50.6426424,7.54610769 51.6125791,6.40322308 C52.5825158,5.26033846 53.8704905,4.68849231 55.4796677,4.68849231 C56.6814082,4.68849231 57.6814082,5.02206923 58.4780854,5.68922308 C59.2739715,6.35637692 59.6727057,7.20526154 59.6727057,8.23345385 C59.6727057,8.80126154 59.5184335,9.26891538 59.2106804,9.63722308 C58.9029272,10.0055308 58.5081487,10.1896846 58.0271361,10.1896846 C57.6513449,10.1896846 57.3396361,10.0749923 57.0920095,9.8448 C56.8428006,9.61460769 56.7193829,9.3303 56.7193829,8.99268462" id="Fill-7" fill="#FFFFFF"></path>
                <path d="M64.1594937,1.74558462 L64.0693038,6.2307 C64.6721519,5.64754615 65.2227848,5.24450769 65.7204114,5.02239231 C66.218038,4.79946923 66.8058544,4.68881538 67.4838608,4.68881538 C68.780538,4.68881538 69.8200949,5.06439231 70.6041139,5.81635385 C71.3889241,6.56831538 71.780538,7.55773846 71.780538,8.78543077 L71.780538,12.6300462 C71.780538,13.5354692 71.7884494,14.0338154 71.803481,14.1258923 C71.8628165,14.8932 72.0582278,15.2768538 72.3889241,15.2768538 C72.5099684,15.2768538 72.6824367,15.2340462 72.9087025,15.1484308 C72.9981013,15.1266231 73.1183544,15.1161231 73.2686709,15.1161231 C73.8248418,15.1161231 74.1025316,15.3770077 74.1025316,15.8979692 C74.1025316,16.4205462 73.7417722,16.6806231 73.0202532,16.6806231 C72.8248418,16.6806231 72.5400316,16.6580077 72.1634494,16.6119692 C71.5321203,16.5360462 71.0218354,16.4972769 70.6310127,16.4972769 C70.2401899,16.4972769 69.939557,16.5126231 69.7291139,16.5425077 C69.0969937,16.6353923 68.7061709,16.6806231 68.5566456,16.6806231 C68.2860759,16.6806231 68.0606013,16.6006615 67.8794304,16.4391231 C67.6998418,16.2783923 67.6088608,16.0748538 67.6088608,15.8293154 C67.6088608,15.6298154 67.6879747,15.4610077 67.8462025,15.3237 C68.0036392,15.1855846 68.1879747,15.1161231 68.3984177,15.1161231 C68.5637658,15.1161231 68.7591772,15.1548923 68.985443,15.2308154 C69.1207278,15.2768538 69.2481013,15.2994692 69.3683544,15.2994692 C69.8185127,15.2994692 70.0518987,14.8011231 70.0669304,13.8036231 C70.0669304,13.6194692 70.0811709,13.2592385 70.1120253,12.7221231 L70.1120253,11.7318923 L70.1120253,10.4888538 C70.1120253,8.92354615 69.9609177,7.87273846 69.6594937,7.33562308 C69.2212025,6.53762308 68.4522152,6.13781538 67.3509494,6.13781538 C66.1579114,6.13781538 65.2916139,6.55296923 64.7481013,7.38166154 C64.3707278,7.94946923 64.1745253,8.86296923 64.1594937,10.1205462 L64.1594937,11.7779308 C64.1594937,11.8700077 64.1294304,12.0242769 64.0693038,12.2383154 L64.0693038,12.6752769 C64.0693038,13.5500077 64.0772152,14.0572385 64.0922468,14.1953538 C64.1697785,14.9473154 64.3936709,15.3237 64.7655063,15.3237 C64.8889241,15.3237 65.0629747,15.2889692 65.2868671,15.2195077 C65.5107595,15.1508538 65.6768987,15.1161231 65.7852848,15.1161231 C66.2797468,15.1161231 66.5265823,15.3608538 66.5265823,15.8511231 C66.5265823,16.4043923 66.1943038,16.6806231 65.5281646,16.6806231 C65.3161392,16.6806231 64.9981013,16.6580077 64.5740506,16.6119692 C63.9996835,16.5505846 63.5075949,16.5198923 63.0985759,16.5198923 C62.8414557,16.5198923 62.4862342,16.5425077 62.0321203,16.5893538 C61.4261076,16.6499308 61.0408228,16.6806231 60.8738924,16.6806231 C60.2536392,16.6806231 59.9435127,16.3971231 59.9435127,15.8277 C59.9435127,15.3535846 60.2338608,15.1161231 60.8153481,15.1161231 C61.0139241,15.1161231 61.1602848,15.1371231 61.252057,15.1807385 C61.5115506,15.2453538 61.6958861,15.2768538 61.8026899,15.2768538 C62.047943,15.2768538 62.2125,15.0434308 62.2971519,14.5749692 C62.3810127,14.1073154 62.4300633,13.1518154 62.4458861,11.7092769 L62.4458861,7.58843077 C62.4458861,5.28650769 62.4007911,3.83266154 62.3106013,3.22608462 C62.2204114,2.62031538 62.0099684,2.31743077 61.6792722,2.31743077 C61.5740506,2.31743077 61.4158228,2.34004615 61.2061709,2.38608462 C60.9949367,2.43293077 60.8295886,2.45554615 60.7101266,2.45554615 C60.1982595,2.45554615 59.9435127,2.21000769 59.9435127,1.71893077 C59.9435127,1.50408462 60.0329114,1.31993077 60.2140823,1.16566154 C60.3936709,1.01300769 60.6120253,0.936276923 60.8675633,0.936276923 C60.9427215,0.936276923 61.1982595,0.958892308 61.6349684,1.00493077 C61.9197785,1.03562308 62.2283228,1.05177692 62.559019,1.05177692 C62.6935127,1.05177692 62.8818038,1.03158462 63.1223101,0.993623077 C63.3628165,0.954853846 63.5360759,0.936276923 63.6412975,0.936276923 C63.9862342,0.936276923 64.1594937,1.1907 64.1594937,1.69873846 L64.1594937,1.74558462 Z" id="Fill-9" fill="#FFFFFF"></path>
                <path d="M76.1548259,9.22303846 C76.1548259,9.43869231 76.3201741,9.5445 76.6508703,9.5445 L82.0393196,9.5445 C82.3557753,9.5445 82.513212,9.43869231 82.513212,9.22303846 C82.513212,8.40969231 82.2125791,7.70376923 81.6113133,7.10526923 C81.0100475,6.50676923 80.3035601,6.20792308 79.4918513,6.20792308 C78.6500791,6.20792308 77.8834652,6.51807692 77.1928006,7.14 C76.5005538,7.76111538 76.1548259,8.45573077 76.1548259,9.22303846 M84.3399525,9.82153846 C84.3399525,10.4046923 84.3019778,10.7616923 84.2268196,10.8917308 C84.1508703,11.0225769 83.9340981,11.088 83.5733386,11.088 L76.4024525,11.088 C76.2070411,11.088 76.0796677,11.1146538 76.0195411,11.1679615 C75.9594146,11.2220769 75.9293513,11.3101154 75.9293513,11.4328846 C75.9293513,12.5838462 76.2679589,13.5433846 76.9443829,14.3106923 C77.620807,15.078 78.4625791,15.4616538 79.4689082,15.4616538 C80.1303006,15.4616538 80.7355222,15.2766923 81.2845728,14.9083846 C81.8336234,14.5400769 82.1896361,14.0724231 82.3557753,13.5046154 L82.558307,12.8374615 C82.6635285,12.4691538 82.9111551,12.2841923 83.3019778,12.2841923 C83.8581487,12.2841923 84.1366297,12.5757692 84.1366297,13.1589231 C84.1366297,14.1564231 83.6405854,15.0432692 82.6484968,15.8178462 C81.6564082,16.5924231 80.5290348,16.9801154 79.2671677,16.9801154 C77.6880538,16.9801154 76.433307,16.4397692 75.5013449,15.3574615 C74.5685918,14.2759615 74.1026108,12.8221154 74.1026108,10.9951154 C74.1026108,9.12369231 74.5986551,7.60361538 75.5915348,6.43811538 C76.5836234,5.271 77.8763449,4.68865385 79.4689082,4.68865385 C80.8826741,4.68865385 82.047231,5.17084615 82.9641614,6.13846154 C83.8810918,7.10526923 84.3399525,8.33296154 84.3399525,9.82153846" id="Fill-11" fill="#FFFFFF"></path>
                <path d="M88.6873418,5.73590769 L88.6873418,6.36833077 C89.4689873,5.24806154 90.5140823,4.68833077 91.8218354,4.68833077 C92.8732595,4.68833077 93.7268987,4.99121538 94.3803797,5.59698462 C95.0346519,6.20356154 95.3621835,6.98217692 95.3621835,7.93444615 C95.3621835,8.60967692 95.1960443,9.15729231 94.8661392,9.57971538 C94.5346519,10.0021385 94.0987342,10.2129462 93.5575949,10.2129462 C93.2118671,10.2129462 92.9191456,10.1055231 92.6786392,9.89067692 C92.4373418,9.67583077 92.3178797,9.41494615 92.3178797,9.10802308 C92.3178797,8.86248462 92.4080696,8.64440769 92.5884494,8.45136923 C92.7688291,8.25994615 92.9792722,8.16383077 93.2197785,8.16383077 C93.2648734,8.16383077 93.3621835,8.18725385 93.5132911,8.23329231 C93.6026899,8.04833077 93.6485759,7.88033077 93.6485759,7.72686923 C93.6485759,7.28183077 93.4563291,6.90544615 93.0726266,6.59852308 C92.6897152,6.2916 92.2118671,6.13813846 91.6406646,6.13813846 C90.4689873,6.13813846 89.6873418,6.67525385 89.296519,7.74948462 C89.0560127,8.41017692 88.9349684,9.40686923 88.9349684,10.7419846 L88.9349684,12.2612538 C88.9349684,13.2902538 88.9428797,13.8645231 88.9579114,13.9881 C89.0330696,14.8628308 89.2656646,15.2997923 89.6572785,15.2997923 C89.8526899,15.2997923 90.0552215,15.2739462 90.2656646,15.2214462 C90.4310127,15.1810615 90.5742089,15.1616769 90.694462,15.1616769 C91.1754747,15.1616769 91.4151899,15.4039846 91.4151899,15.8869846 C91.4151899,16.4168308 91.109019,16.6809462 90.4943038,16.6809462 L90.4049051,16.6809462 C90.1802215,16.6809462 89.8384494,16.6542923 89.381962,16.6001769 C88.9254747,16.5468692 88.5844937,16.5202154 88.3598101,16.5202154 C87.7601266,16.5202154 87.2878165,16.5355615 86.9436709,16.5662538 L85.6857595,16.6809462 C85.0710443,16.6809462 84.7640823,16.4127923 84.7640823,15.8756769 C84.7640823,15.3999462 85.052057,15.1616769 85.6287975,15.1616769 C85.7799051,15.1616769 85.8946203,15.1697538 85.9697785,15.1851 L86.3115506,15.2537538 C86.4626582,15.2844462 86.569462,15.2997923 86.6295886,15.2997923 C87.0093354,15.2997923 87.2142405,14.9468308 87.2443038,14.2409077 L87.2443038,13.0673308 L87.177057,7.84156154 C87.131962,6.93613846 86.9064873,6.48383077 86.4998418,6.48383077 C86.3795886,6.48383077 86.2150316,6.50644615 86.0037975,6.55329231 C85.7941456,6.59852308 85.6287975,6.62194615 85.5077532,6.62194615 C85.0117089,6.62194615 84.7640823,6.37640769 84.7640823,5.88533077 C84.7640823,5.34821538 85.0868671,5.08006154 85.734019,5.08006154 C85.8835443,5.08006154 86.109019,5.09863846 86.410443,5.13740769 C86.7110759,5.17617692 86.9357595,5.19475385 87.0868671,5.19475385 C87.2071203,5.19475385 87.4025316,5.17617692 87.6731013,5.13740769 C87.7925633,5.09863846 87.9357595,5.08006154 88.1011076,5.08006154 C88.4919304,5.08006154 88.6873418,5.29813846 88.6873418,5.73590769" id="Fill-13" fill="#FFFFFF"></path>
                <path d="M100.636076,4.68841154 C101.640032,4.68841154 102.477848,4.95656538 103.15269,5.49368077 L103.15269,5.40160385 C103.15269,4.83460385 103.392405,4.55029615 103.874209,4.55029615 C104.370253,4.55029615 104.61788,4.79583462 104.61788,5.28610385 C104.61788,5.37818077 104.606013,5.60918077 104.579905,5.97748846 C104.530854,6.28441154 104.505538,6.59052692 104.505538,6.89745 C104.505538,7.08241154 104.523734,7.35056538 104.561709,7.70352692 C104.599684,8.05729615 104.61788,8.32545 104.61788,8.50879615 C104.61788,9.09275769 104.374209,9.38352692 103.885285,9.38352692 C103.411392,9.38352692 103.16693,9.13879615 103.15269,8.64691154 L103.15269,7.88768077 C103.137658,7.42810385 102.878165,7.03233462 102.374209,6.70198846 C101.871044,6.37245 101.280854,6.20768077 100.60443,6.20768077 C99.9129747,6.20768077 99.3338608,6.38779615 98.8686709,6.74883462 C98.4026899,7.10906538 98.1700949,7.55814231 98.1700949,8.09525769 C98.1700949,9.07741154 98.8306962,9.65975769 100.154272,9.84471923 L101.461234,10.0280654 C104.016614,10.3818346 105.295095,11.4641423 105.295095,13.2741808 C105.295095,14.3791038 104.88212,15.2732192 104.057753,15.9557192 C103.233386,16.6390269 102.154272,16.9806808 100.820411,16.9806808 C99.5767405,16.9806808 98.4976266,16.6196423 97.5838608,15.8983731 L97.5838608,16.3361423 C97.5838608,16.8877962 97.3275316,17.1640269 96.8164557,17.1640269 C96.2602848,17.1640269 95.9825949,16.8498346 95.9825949,16.2206423 C95.9825949,16.3280654 96.0276899,15.9290654 96.1178797,15.0236423 C96.147943,14.8087962 96.1629747,14.5947577 96.1629747,14.3791038 C96.1629747,14.0107962 96.1329114,13.6651038 96.0719937,13.3436423 C96.0118671,13.0205654 95.9825949,12.7677577 95.9825949,12.5836038 C95.9825949,12.0464885 96.2231013,11.7775269 96.7041139,11.7775269 C97.0197785,11.7775269 97.2191456,11.8550654 97.3014241,12.0085269 C97.3844937,12.1619885 97.4327532,12.5690654 97.4485759,13.2281423 C97.4628165,13.8888346 97.8014241,14.4251423 98.4628165,14.8394885 C99.1242089,15.2538346 99.9651899,15.4614115 100.988133,15.4614115 C101.724684,15.4614115 102.333861,15.2699885 102.814082,14.8855269 C103.295095,14.5018731 103.535601,14.0188731 103.535601,13.4357192 C103.535601,12.3921808 102.724684,11.7856038 101.100475,11.6167962 C99.5522152,11.4479885 98.3726266,11.1370269 97.5609177,10.6847192 C96.7492089,10.2316038 96.3433544,9.43845 96.3433544,8.30283462 C96.3433544,7.22860385 96.7405063,6.35629615 97.534019,5.68914231 C98.3283228,5.02198846 99.3623418,4.68841154 100.636076,4.68841154" id="Fill-15" fill="#FFFFFF"></path>
                <g id="Group-19" transform="translate(0.000000, 3.092008)">
                    <mask id="mask-2" fill="white">
                        <use xlink:href="#path-1"></use>
                    </mask>
                    <g id="Clip-18"></g>
                    <path d="M10.8303797,7.0644 L13.1721519,4.67363077 C13.4443038,4.39416923 13.3533228,4.03878462 13.081962,3.75932308 C12.8106013,3.48309231 12.4617089,3.39101538 12.1903481,3.67047692 L9.84620253,6.06205385 L7.63575949,3.80293846 L9.97990506,1.41216923 C10.2496835,1.13432308 10.1610759,0.777323077 9.88813291,0.499476923 C9.61835443,0.224861538 9.26867089,0.130361538 8.99651899,0.408207692 L6.6539557,2.80059231 L4.36202532,0.459092308 C4.08987342,0.185284615 3.68876582,0.224861538 3.41898734,0.499476923 C3.1460443,0.776515385 3.10648734,1.18601538 3.37705696,1.46386154 L5.67056962,3.80293846 L3.45933544,6.06205385 L1.16661392,3.72216923 C0.896044304,3.4419 0.494936709,3.48309231 0.223575949,3.76013077 C-0.0462025316,4.03878462 -0.0865506329,4.44747692 0.184018987,4.72370769 L2.47594937,7.06520769 L0.184018987,9.40266923 C-0.0873417722,9.68132308 -0.0462025316,10.0900154 0.225158228,10.3662462 C0.494936709,10.6449 0.896044304,10.6828615 1.1681962,10.4074385 L3.46012658,8.06674615 L5.67056962,10.3258615 L3.37943038,12.6657462 C3.10727848,12.9419769 3.1460443,13.3514769 3.41898734,13.6277077 C3.68955696,13.9047462 4.09066456,13.9475538 4.36281646,13.6672846 L6.65474684,11.3282077 L8.99651899,13.7189769 C9.26787975,14.0000538 9.61677215,13.9055538 9.88813291,13.6277077 C10.1602848,13.3514769 10.2496835,12.9952846 9.97990506,12.7190538 L7.63575949,10.3266692 L9.84778481,8.06755385 L12.1903481,10.4599385 C12.4617089,10.7361692 12.8106013,10.6449 13.0811709,10.3670538 C13.3533228,10.0908231 13.4443038,9.73543846 13.1721519,9.45678462 L10.8303797,7.0644 Z M6.6539557,9.32351538 L4.44351266,7.0644 L6.6539557,4.80770769 L8.86281646,7.0644 L6.6539557,9.32351538 Z" id="Fill-17" fill="#FECE06" mask="url(#mask-2)"></path>
                </g>
                <path d="M113.173734,4.305 C113.173734,2.47234615 112.845411,2.42388462 112.540032,2.42388462 C112.167405,2.42388462 111.8375,2.562 111.338291,2.562 C110.898418,2.562 110.593038,2.24861538 110.593038,1.82296154 C110.593038,1.30846154 111.073259,0.995076923 111.596994,0.995076923 C112.278165,0.995076923 112.627848,1.24384615 113.063766,1.24384615 C113.634968,1.24384615 113.831171,0.995076923 114.248892,0.995076923 C114.79557,0.995076923 114.858861,1.3545 114.858861,2.15492308 L114.858861,13.4198077 C114.858861,15.0497308 115.12231,15.2976923 115.493354,15.2976923 C115.866772,15.2976923 116.193513,15.1628077 116.500475,15.1628077 C116.94193,15.1628077 117.244937,15.4737692 117.244937,15.8986154 C117.244937,16.4131154 116.763133,16.7265 116.304272,16.7265 C115.55981,16.7265 115.120728,16.4809615 114.049525,16.4809615 C113.043987,16.4809615 112.494937,16.7265 111.730696,16.7265 C111.269462,16.7265 110.787658,16.4131154 110.787658,15.8986154 C110.787658,15.4745769 111.093038,15.1628077 111.53212,15.1628077 C111.836709,15.1628077 112.165823,15.2976923 112.540032,15.2976923 C113.063766,15.2976923 113.173734,14.6967692 113.173734,13.4198077 L113.173734,4.305 L113.173734,4.305 Z" id="Fill-20" fill="#FFFFFF"></path>
                <path d="M125.677927,9.55370769 C125.567959,7.72105385 124.537896,6.31809231 122.590902,6.31809231 C120.708782,6.31809231 119.372547,7.67986154 119.220649,9.55370769 L125.677927,9.55370769 Z M119.023655,11.1642462 C118.937421,13.4443615 120.139953,15.5193231 122.547389,15.5193231 C124.035522,15.5193231 125.15182,14.7609 125.567959,13.3086692 C125.700079,12.8394 125.809256,12.3249 126.397073,12.3249 C126.88125,12.3249 127.274446,12.6625154 127.274446,13.1737846 C127.274446,14.0897077 126.618592,15.1413231 125.982516,15.7398231 C125.063212,16.6363615 123.663687,17.0402077 122.41606,17.0402077 C118.97856,17.0402077 117.206408,14.4232846 117.206408,11.1190154 C117.206408,9.59974615 117.579035,7.9674 118.498339,6.75828462 C119.484098,5.48536154 120.949288,4.79397692 122.526028,4.79397692 C125.480934,4.79397692 127.493592,6.96101538 127.493592,9.95513077 C127.493592,11.0697462 127.493592,11.1634385 126.445332,11.1634385 L119.023655,11.1634385 L119.023655,11.1642462 Z" id="Fill-22" fill="#FFFFFF"></path>
                <path d="M132.44193,15.5194038 C133.468038,15.5194038 134.542405,15.2084423 135.199842,14.33775 C135.678481,13.6439423 135.743354,12.9541731 135.743354,12.1682885 C135.743354,11.6982115 135.767089,11.2079423 135.788449,10.7402885 C134.979114,11.5455577 133.775,11.5899808 132.725158,11.6982115 C131.566139,11.8112885 130.164241,12.0988269 130.164241,13.6439423 C130.164241,14.9830962 131.278956,15.5194038 132.44193,15.5194038 L132.44193,15.5194038 Z M137.495728,13.1318654 C137.473576,13.8264808 137.275791,15.5670577 138.326424,15.5670577 C139.26788,15.5670577 139.115981,14.1366346 139.115981,13.4856346 C139.115981,12.8604808 139.028956,12.1489038 139.81693,12.1489038 C140.429272,12.1489038 140.582753,12.5470962 140.582753,13.0615962 C140.582753,14.7601731 140.582753,15.5194038 140.12231,16.1469808 C139.68481,16.7721346 138.92057,16.95225 138.195095,16.95225 C137.123101,16.95225 136.180854,16.4619808 135.9625,15.3409038 C135.199842,16.5944423 133.818513,17.0427115 132.416614,17.0427115 C131.518671,17.0427115 130.578006,16.8844038 129.812184,16.3941346 C128.914241,15.8134038 128.346994,14.8506346 128.346994,13.7360192 C128.346994,12.4824808 128.828797,11.4995192 129.835127,10.8945577 C130.799525,10.3138269 131.694304,10.2274038 132.768671,10.0925192 C134.081962,9.95763462 135.812184,9.97944231 135.812184,8.32528846 C135.812184,6.82782692 134.62943,6.31817308 133.3375,6.31817308 C132.768671,6.31817308 132.133386,6.51525 131.652373,6.80601923 C131.477532,6.91909615 131.148418,7.14363462 131.148418,7.38675 C131.148418,7.49982692 131.672152,7.52405769 131.672152,8.30428846 C131.672152,8.97467308 131.104905,9.35671154 130.490981,9.35671154 C129.725158,9.35671154 129.134968,8.72832692 129.134968,7.92386538 C129.134968,6.96351923 129.74731,6.15663462 130.490981,5.62436538 C131.278956,5.06221154 132.416614,4.79648077 133.381013,4.79648077 C134.410285,4.79648077 135.547152,5.03959615 136.37943,5.69059615 C137.453797,6.53948077 137.606487,7.74455769 137.584335,9.08532692 L137.495728,13.1318654 Z" id="Fill-24" fill="#FFFFFF"></path>
                <path d="M143.493908,8.41671923 C143.493908,6.89502692 143.318275,6.53802692 142.838054,6.53802692 C142.466218,6.53802692 142.137104,6.67371923 141.568275,6.67371923 C141.129984,6.67371923 140.823813,6.36033462 140.823813,5.93225769 C140.823813,5.41775769 141.306408,5.10679615 141.810364,5.10679615 C142.222547,5.10679615 142.553244,5.35556538 143.080142,5.35556538 C143.625237,5.35556538 143.910839,5.10679615 144.326978,5.10679615 C144.895807,5.10679615 144.96068,5.57687308 144.93932,6.47341154 L144.982041,6.47341154 C145.660047,5.33133462 146.755775,4.79664231 148.069858,4.79664231 C149.906092,4.79664231 151.592801,5.91206538 151.592801,7.94825769 C151.592801,9.08548846 151.089636,10.2501808 149.752611,10.2501808 C149.164003,10.2501808 148.569858,9.82371923 148.569858,9.17675769 C148.569858,8.68406538 148.965427,8.21398846 149.469383,8.21398846 C149.555617,8.21398846 149.664003,8.25841154 149.752611,8.28264231 C149.839636,8.10091154 149.884731,7.97006538 149.884731,7.76895 C149.884731,6.76095 148.811946,6.20525769 147.935364,6.20525769 C146.272389,6.20525769 145.179035,7.18902692 145.179035,10.4246423 L145.179035,13.4211808 C145.179035,15.0511038 145.484415,15.2990654 145.878402,15.2990654 C146.250237,15.2990654 146.579351,15.1641808 146.887896,15.1641808 C147.324604,15.1641808 147.630775,15.4751423 147.630775,15.8999885 C147.630775,16.4144885 147.149763,16.7278731 146.68932,16.7278731 C145.94644,16.7278731 145.330934,16.4823346 144.435364,16.4823346 C143.51606,16.4823346 143.012104,16.7278731 142.114161,16.7278731 C141.611788,16.7278731 141.129984,16.4144885 141.129984,15.8999885 C141.129984,15.47595 141.436155,15.1641808 141.873655,15.1641808 C142.180617,15.1641808 142.508149,15.2990654 142.881566,15.2990654 C143.361788,15.2990654 143.493908,14.9856808 143.493908,13.4211808 L143.493908,8.41671923 L143.493908,8.41671923 Z" id="Fill-26" fill="#FFFFFF"></path>
                <path d="M154.409652,8.43836538 C154.409652,6.89486538 154.277532,6.53948077 153.775949,6.53948077 C153.403323,6.53948077 153.075,6.67517308 152.76962,6.67517308 C152.330538,6.67517308 152.025158,6.36178846 152.025158,5.93371154 C152.025158,5.53228846 152.461076,5.10825 152.834494,5.10825 C153.294937,5.10825 153.446835,5.35701923 154.016456,5.35701923 C154.650158,5.35701923 154.847152,5.10825 155.396203,5.10825 C155.856646,5.10825 155.878006,5.60175 155.878006,6.44821154 L155.919937,6.44821154 C156.753006,5.28836538 158.218987,4.79648077 159.575791,4.79648077 C160.735601,4.79648077 161.874842,5.19790385 162.749051,6.00478846 C163.713449,6.89648077 163.75538,8.03855769 163.75538,9.26463462 L163.75538,13.4210192 C163.75538,14.7852115 163.889082,15.3223269 164.391456,15.3223269 C164.761709,15.3223269 165.090032,15.1874423 165.395411,15.1874423 C165.832911,15.1874423 166.141456,15.4975962 166.141456,15.9208269 C166.141456,16.43775 165.789399,16.7277115 165.198418,16.7277115 C164.476108,16.7277115 163.952373,16.4821731 162.965823,16.4821731 C161.916772,16.4821731 161.412025,16.7277115 160.624842,16.7277115 C160.034652,16.7277115 159.681804,16.43775 159.681804,15.9208269 C159.681804,15.4992115 159.987184,15.1874423 160.426266,15.1874423 C160.731646,15.1874423 161.061551,15.3223269 161.432595,15.3223269 C161.979272,15.3223269 162.06788,14.8264038 162.06788,13.4210192 L162.06788,10.1127115 C162.06788,8.68309615 162.06788,8.23725 161.717405,7.54425 C161.279114,6.67355769 160.251424,6.31817308 159.329747,6.31817308 C158.344778,6.31817308 157.208703,6.73978846 156.659652,7.61048077 C156.396203,8.03694231 156.090823,8.52882692 156.090823,10.7620962 L156.090823,13.3967885 C156.090823,14.7601731 156.221361,15.2980962 156.724525,15.2980962 C157.09557,15.2980962 157.425475,15.1632115 157.732437,15.1632115 C158.168354,15.1632115 158.475316,15.4733654 158.475316,15.8990192 C158.475316,16.4135192 158.122468,16.7269038 157.533861,16.7269038 C156.809968,16.7269038 156.286234,16.4805577 155.301266,16.4805577 C154.249842,16.4805577 153.746677,16.7269038 152.958703,16.7269038 C152.370095,16.7269038 152.018038,16.4135192 152.018038,15.8990192 C152.018038,15.4749808 152.324209,15.1632115 152.763291,15.1632115 C153.067089,15.1632115 153.396203,15.2980962 153.76962,15.2980962 C154.315506,15.2980962 154.403323,14.8078269 154.403323,13.3967885 L154.403323,8.43836538 L154.409652,8.43836538 Z" id="Fill-28" fill="#FFFFFF"></path>
                <path d="M170.847468,2.67249231 C170.847468,3.38649231 170.278639,3.96722308 169.57769,3.96722308 C168.898892,3.96722308 168.330854,3.38649231 168.330854,2.67249231 C168.330854,1.95526154 168.900475,1.39876154 169.57769,1.39876154 C170.278639,1.39876154 170.847468,1.95526154 170.847468,2.67249231 L170.847468,2.67249231 Z M169.116456,8.4168 C169.116456,6.85068462 168.963766,6.53810769 168.482753,6.53810769 C168.113291,6.53810769 167.782595,6.6738 167.474842,6.6738 C167.038133,6.6738 166.731171,6.36041538 166.731171,5.93233846 C166.731171,5.41783846 167.081646,5.10687692 167.496994,5.10687692 C168.088766,5.10687692 168.41788,5.35564615 168.943196,5.35564615 C169.4875,5.35564615 169.773892,5.10687692 170.188449,5.10687692 C170.693987,5.10687692 170.802373,5.62460769 170.802373,6.06964615 L170.802373,14.3799923 C170.802373,14.9171077 170.977215,15.2975308 171.373576,15.2975308 C171.613291,15.2975308 171.918671,15.1424538 172.246994,15.1626462 C172.684494,15.1626462 172.989873,15.4736077 172.989873,15.8984538 C172.989873,16.4129538 172.508861,16.7263385 172.048418,16.7263385 C171.304747,16.7263385 170.736709,16.4808 169.794462,16.4808 C168.878323,16.4808 168.242247,16.7263385 167.473259,16.7263385 C167.103006,16.7263385 166.73038,16.3257231 166.73038,15.8984538 C166.73038,15.4744154 167.035759,15.1626462 167.473259,15.1626462 C167.780222,15.1626462 168.110918,15.2975308 168.481171,15.2975308 C168.986709,15.2975308 169.114873,14.8080692 169.114873,13.4196462 L169.114873,8.4168 L169.116456,8.4168 Z" id="Fill-30" fill="#FFFFFF"></path>
                <path d="M176.077215,8.43836538 C176.077215,6.89486538 175.947468,6.53948077 175.443513,6.53948077 C175.071677,6.53948077 174.744146,6.67517308 174.437184,6.67517308 C173.999684,6.67517308 173.692722,6.36178846 173.692722,5.93371154 C173.692722,5.53228846 174.131804,5.10825 174.502057,5.10825 C174.9625,5.10825 175.115981,5.35701923 175.684019,5.35701923 C176.319304,5.35701923 176.51788,5.10825 177.062184,5.10825 C177.524209,5.10825 177.54557,5.60175 177.54557,6.44821154 L177.589082,6.44821154 C178.418196,5.28836538 179.884968,4.79648077 181.243354,4.79648077 C182.406329,4.79648077 183.540823,5.19790385 184.416614,6.00478846 C185.381013,6.89648077 185.424525,8.03855769 185.424525,9.26463462 L185.424525,13.4210192 C185.424525,14.7852115 185.554272,15.3223269 186.058228,15.3223269 C186.432437,15.3223269 186.761551,15.1874423 187.068513,15.1874423 C187.50443,15.1874423 187.811392,15.4975962 187.811392,15.9208269 C187.811392,16.43775 187.460918,16.7277115 186.868354,16.7277115 C186.147627,16.7277115 185.62231,16.4821731 184.637342,16.4821731 C183.5875,16.4821731 183.081962,16.7277115 182.294778,16.7277115 C181.702215,16.7277115 181.351741,16.43775 181.351741,15.9208269 C181.351741,15.4992115 181.65712,15.1874423 182.096203,15.1874423 C182.403165,15.1874423 182.729905,15.3223269 183.103323,15.3223269 C183.650791,15.3223269 183.737816,14.8264038 183.737816,13.4210192 L183.737816,10.1127115 C183.737816,8.68309615 183.737816,8.23725 183.385759,7.54425 C182.946677,6.67355769 181.922152,6.31817308 181.000475,6.31817308 C180.016297,6.31817308 178.877057,6.73978846 178.329589,7.61048077 C178.067722,8.03694231 177.759968,8.52882692 177.759968,10.7620962 L177.759968,13.3967885 C177.759968,14.7601731 177.89288,15.2980962 178.394462,15.2980962 C178.764715,15.2980962 179.093829,15.1632115 179.402373,15.1632115 C179.839082,15.1632115 180.146044,15.4733654 180.146044,15.8990192 C180.146044,16.4135192 179.796361,16.7269038 179.20538,16.7269038 C178.48307,16.7269038 177.957753,16.4805577 176.973576,16.4805577 C175.921361,16.4805577 175.417405,16.7269038 174.631804,16.7269038 C174.039241,16.7269038 173.688766,16.4135192 173.688766,15.8990192 C173.688766,15.4749808 173.995728,15.1632115 174.433228,15.1632115 C174.738608,15.1632115 175.06693,15.2980962 175.439557,15.2980962 C175.986234,15.2980962 176.073259,14.8078269 176.073259,13.3967885 L176.073259,8.43836538 L176.077215,8.43836538 Z" id="Fill-32" fill="#FFFFFF"></path>
                <g id="Group-36" transform="translate(187.500000, 2.284315)">
                    <mask id="mask-4" fill="white">
                        <use xlink:href="#path-3"></use>
                    </mask>
                    <g id="Clip-35"></g>
                    <path d="M8.80166139,6.26478462 C8.75656646,4.8594 7.55561709,3.96528462 6.24074367,3.96528462 C4.90530063,3.96528462 3.76606013,4.8804 3.76606013,6.28659231 C3.76606013,7.76063077 4.88235759,8.58851538 6.21859177,8.58851538 C7.55403481,8.58770769 8.75656646,7.78405385 8.80166139,6.26478462 L8.80166139,6.26478462 Z M3.52713608,13.4564769 C2.89343354,13.7722846 2.36811709,14.3312077 2.36811709,15.0920538 C2.36811709,15.9409385 3.08884494,16.5216692 3.78900316,16.7906308 C4.47017405,17.0361692 5.41004747,17.1250154 6.1102057,17.1250154 C7.35625,17.1250154 9.91795886,16.8124385 9.91795886,15.0476308 C9.91795886,13.2594 7.51052215,13.0138615 6.19881329,13.0138615 C5.40925633,13.0138615 4.24786392,13.1027077 3.52713608,13.4564769 L3.52713608,13.4564769 Z M5.51764241,11.4259385 C6.76447785,11.4259385 7.99074367,11.4703615 9.17349684,11.8742077 C10.5532437,12.3442846 11.7352057,13.3934769 11.7352057,15.0015923 C11.7352057,17.8600154 8.27792722,18.5772462 6.08884494,18.5772462 C3.92112342,18.5772462 0.550079114,17.9730923 0.550079114,15.1146692 C0.550079114,13.7924769 1.42507911,12.8571692 2.60625,12.4751308 L2.60625,12.4307077 C1.58014241,12.0712846 0.767642405,11.4945923 0.767642405,10.3105154 C0.767642405,9.14743846 1.55640823,8.36720769 2.60625,8.05220769 C2.17033228,7.53851538 1.99390823,6.82370769 1.99390823,6.10970769 C1.99390823,3.78597692 4.09596519,2.51224615 6.17507911,2.51224615 C6.61099684,2.51224615 7.04928797,2.53405385 7.48678797,2.66732308 C7.42191456,1.21428462 8.69327532,0.367823077 10.004193,0.367823077 C11.1853639,0.367823077 12.4772943,1.0374 12.4772943,2.40159231 C12.4772943,3.04855385 11.9749209,3.69632308 11.2945411,3.69632308 C10.8356804,3.69632308 10.4195411,3.31670769 10.4195411,2.82401538 C10.4195411,2.48963077 10.6600475,2.26509231 10.8997627,2.08578462 C10.6821994,1.77482308 10.3546677,1.63993846 9.98283228,1.63993846 C9.10704114,1.63993846 8.73441456,2.35393846 8.77792722,3.15920769 C9.85071203,3.80697692 10.4852057,5.03709231 10.4852057,6.31082308 C10.4852057,8.7234 8.44960443,10.0875923 6.32697785,10.0875923 C5.45118671,10.0875923 4.61969937,9.83882308 3.81036392,9.48424615 C3.65688291,9.41478462 3.39501582,9.32836154 3.22017405,9.32836154 C2.73757911,9.32836154 2.40925633,9.84043846 2.40925633,10.2887077 C2.40925633,11.3855538 3.92112342,11.4283615 4.70830696,11.4283615 L5.51764241,11.4283615 L5.51764241,11.4259385 Z" id="Fill-34" fill="#FFFFFF" mask="url(#mask-4)"></path>
                </g>
                <path d="M211.932595,13.1671615 C212.087658,12.5638154 212.174684,11.7827769 212.940506,11.7827769 C213.397785,11.7827769 213.794937,12.1842 213.794937,12.6542769 C213.794937,13.5265846 213.161234,14.7768923 212.590032,15.4020462 C211.692089,16.4092385 210.402532,16.8550846 209.089241,16.8550846 C205.760918,16.8550846 204.014082,14.0822769 204.014082,10.9557 C204.014082,7.49312308 205.740348,4.60723846 209.395411,4.60723846 C210.292563,4.60723846 211.298892,4.87862308 212.043354,5.41493077 C212.875633,5.99566154 213.509335,7.04485385 213.509335,8.09404615 C213.509335,9.14889231 213.006171,10.1278154 211.869304,10.1278154 C211.188924,10.1278154 210.576582,9.63754615 210.576582,8.90173846 C210.576582,8.25316154 211.124051,7.89454615 211.714241,7.87273846 C211.67231,6.71289231 210.290981,6.12893077 209.306804,6.12893077 C206.835285,6.12893077 205.827373,8.54231538 205.827373,10.7311615 C205.827373,12.9014308 206.636709,15.3358154 209.196044,15.3358154 C210.556013,15.3342 211.583703,14.4853154 211.932595,13.1671615" id="Fill-37" fill="#FFFFFF"></path>
                <path d="M220.121123,15.3344423 C222.810997,15.3344423 223.686788,12.9662885 223.686788,10.5949038 C223.686788,9.56832692 223.468434,8.31559615 222.899604,7.42148077 C222.308623,6.48617308 221.300712,6.12675 220.249288,6.12675 C219.026187,6.12675 218.105301,6.55078846 217.469225,7.64601923 C216.965269,8.51832692 216.725554,9.70240385 216.725554,10.6869808 C216.725554,12.9000577 217.557832,15.3344423 220.121123,15.3344423 M220.121123,4.60586538 C221.694699,4.60586538 223.119541,5.03313462 224.125079,6.30767308 C225.088687,7.51598077 225.504035,9.16609615 225.504035,10.6877885 C225.504035,14.0825192 223.643275,16.8537115 220.097389,16.8537115 C216.617168,16.8537115 214.911472,14.01225 214.911472,10.7499808 C214.911472,7.46994231 216.596598,4.60586538 220.121123,4.60586538" id="Fill-39" fill="#FFFFFF"></path>
                <g id="Group-43" transform="translate(226.265823, 0.668931)">
                    <mask id="mask-6" fill="white">
                        <use xlink:href="#path-5"></use>
                    </mask>
                    <g id="Clip-42"></g>
                    <path d="M2.1284019,10.1054423 C2.1284019,12.2967115 3.09280063,14.6656731 5.52001582,14.6656731 C6.63631329,14.6656731 7.70751582,14.1729808 8.21226266,13.1221731 C8.6505538,12.2304808 8.71542722,11.01975 8.71542722,9.97055769 C8.71542722,8.89955769 8.6505538,7.62663462 8.01685127,6.73251923 C7.38314873,5.83840385 6.45988924,5.45878846 5.39026899,5.45878846 C2.87286392,5.45878846 2.1284019,7.94082692 2.1284019,10.1054423 L2.1284019,10.1054423 Z M10.4005538,12.56325 C10.4005538,14.10675 10.5761867,14.4411346 11.0334652,14.4411346 C11.4068829,14.4411346 11.7359968,14.30625 12.0413766,14.30625 C12.4796677,14.30625 12.7858386,14.6172115 12.7858386,15.0452885 C12.7858386,15.5565577 12.4345728,15.8699423 12.0627373,15.8699423 C11.66875,15.8699423 11.2755538,15.6244038 10.7715981,15.6244038 C10.2905854,15.6244038 10.1141614,15.8699423 9.58647152,15.8699423 C9.01922468,15.8699423 8.82223101,15.6454038 8.82223101,14.7965192 L8.82223101,14.5752115 L8.77871835,14.5752115 C8.09912975,15.7148654 6.70039557,16.1833269 5.40846519,16.1833269 C1.92587025,16.1833269 0.307199367,13.2312115 0.307199367,9.99317308 C0.307199367,6.84478846 1.88473101,3.93548077 5.27792722,3.93548077 C6.63314873,3.93548077 7.90292722,4.38455769 8.66875,5.61305769 L8.71226266,5.61305769 L8.71226266,3.44844231 C8.71226266,1.79186538 8.49311709,1.56975 8.07776899,1.56975 C7.70593354,1.56975 7.38077532,1.70544231 7.07143987,1.70544231 C6.63314873,1.70544231 6.32618671,1.39205769 6.32618671,0.966403846 C6.32618671,0.476134615 6.74311709,0.138519231 7.16083861,0.138519231 C7.77238924,0.138519231 8.09992089,0.384865385 8.71384494,0.384865385 C9.28346519,0.384865385 9.5880538,0.138519231 10.0271361,0.138519231 C10.2692247,0.138519231 10.3989715,0.318634615 10.3989715,1.10128846 L10.3989715,12.56325 L10.4005538,12.56325 Z" id="Fill-41" fill="#FFFFFF" mask="url(#mask-6)"></path>
                </g>
                <g id="Group-46" transform="translate(238.924051, 3.899700)">
                    <mask id="mask-8" fill="white">
                        <use xlink:href="#path-7"></use>
                    </mask>
                    <g id="Clip-45"></g>
                    <path d="M8.90371835,5.46904615 C8.79375,3.63639231 7.76764241,2.22858462 5.81906646,2.22858462 C3.93615506,2.22858462 2.60150316,3.59196923 2.44960443,5.46904615 L8.90371835,5.46904615 Z M2.25181962,7.07554615 C2.16637658,9.35485385 3.36969937,11.4362769 5.77713608,11.4362769 C7.26526899,11.4362769 8.38156646,10.6770462 8.79375,9.2232 C8.92745253,8.75312308 9.03742089,8.23862308 9.6284019,8.23862308 C10.1086234,8.23862308 10.5026108,8.57623846 10.5026108,9.08750769 C10.5026108,10.0034308 9.84675633,11.0550462 9.21147152,11.6559692 C8.29137658,12.5500846 6.89185127,12.9539308 5.64343354,12.9539308 C2.20593354,12.9539308 0.434572785,10.3370077 0.434572785,7.03273846 C0.434572785,5.51346923 0.806408228,3.88112308 1.72571203,2.67281538 C2.71147152,1.40150769 4.17824367,0.705276923 5.7534019,0.705276923 C8.70830696,0.705276923 10.7225475,2.87473846 10.7225475,5.86885385 C10.7225475,6.98427692 10.7225475,7.07473846 9.67191456,7.07473846 L2.25181962,7.07473846 L2.25181962,7.07554615 Z" id="Fill-44" fill="#FFFFFF" mask="url(#mask-8)"></path>
                </g>
            </g>
        </g>
    </g>
</svg>